<svg height="511pt" viewBox="-45 0 511 511.998" width="511pt" xmlns="http://www.w3.org/2000/svg"><g fill-rule="evenodd"><path d="m48.730469 230.96875c0-9.5 6.425781-16.015625 12.921875-22.597656 12.21875-12.386719 24.566406-24.90625 24.566406-51.058594s-12.347656-38.671875-24.566406-51.0625c-6.496094-6.582031-12.921875-13.101562-12.921875-22.59375 0-9.5 6.425781-16.015625 12.921875-22.597656 12.21875-12.386719 24.566406-24.90625 24.566406-51.058594h-16.734375c0 10.625-6.792969 17.511719-13.511719 24.324219-12.050781 12.21875-23.976562 24.308593-23.976562 49.332031s11.925781 37.113281 23.976562 49.328125c6.71875 6.816406 13.511719 13.703125 13.511719 24.328125 0 10.621094-6.792969 17.511719-13.511719 24.324219-12.050781 12.21875-23.976562 24.308593-23.976562 49.328125 0 25.027344 11.925781 37.117187 23.976562 49.332031 6.71875 6.8125 13.511719 13.699219 13.511719 24.324219h16.734375c0-26.148438-12.351562-38.671875-24.570312-51.058594-6.492188-6.582031-12.917969-13.097656-12.917969-22.59375zm0 0" fill="#5fb3b7"/><path d="m248.359375 428.34375c0-25.023438-11.925781-37.113281-23.976563-49.328125-6.71875-6.816406-13.511718-13.703125-13.511718-24.328125s6.792968-17.511719 13.511718-24.324219c12.050782-12.21875 23.976563-24.308593 23.976563-49.328125 0-25.023437-11.925781-37.113281-23.976563-49.332031-6.71875-6.816406-13.511718-13.703125-13.511718-24.324219h-16.734375c0 26.148438 12.351562 38.671875 24.566406 51.058594 6.496094 6.582031 12.921875 13.101562 12.921875 22.597656s-6.425781 16.011719-12.921875 22.59375c-12.21875 12.390625-24.566406 24.910156-24.566406 51.0625 0 26.148438 12.351562 38.671875 24.566406 51.058594 6.496094 6.582031 12.921875 13.101562 12.921875 22.597656s-6.425781 16.011719-12.921875 22.59375c-12.21875 12.390625-24.566406 24.910156-24.566406 51.0625h16.734375c0-10.625 6.792968-17.511718 13.511718-24.328125 12.050782-12.21875 23.976563-24.308593 23.976563-49.332031zm0 0" fill="#ff9822"/><path d="m373.011719 230.96875c0-9.5 6.425781-16.015625 12.917969-22.597656 12.21875-12.386719 24.566406-24.90625 24.566406-51.058594s-12.347656-38.671875-24.566406-51.0625c-6.492188-6.582031-12.917969-13.101562-12.917969-22.59375 0-9.5 6.425781-16.015625 12.917969-22.597656 12.21875-12.386719 24.566406-24.90625 24.566406-51.058594h-16.730469c0 10.625-6.792969 17.511719-13.515625 24.324219-12.046875 12.21875-23.972656 24.308593-23.972656 49.332031s11.925781 37.113281 23.972656 49.328125c6.722656 6.816406 13.515625 13.703125 13.515625 24.328125 0 10.621094-6.792969 17.511719-13.515625 24.324219-12.046875 12.21875-23.972656 24.308593-23.972656 49.328125 0 25.027344 11.925781 37.117187 23.972656 49.332031 6.722656 6.8125 13.515625 13.699219 13.515625 24.324219h16.730469c0-26.148438-12.347656-38.671875-24.566406-51.058594-6.492188-6.582031-12.917969-13.097656-12.917969-22.59375zm0 0" fill="#6dc97f"/><path d="m186.511719 56.363281c0 11.046875-8.953125 20-19.996094 20-11.046875 0-20-8.953125-20-20s8.953125-20 20-20c11.042969 0 19.996094 8.953125 19.996094 20zm0 0" fill="#ffbf47"/><path d="m287.511719 130.363281c0 11.046875-8.953125 20-20 20-11.042969 0-20-8.953125-20-20s8.957031-20 20-20c11.046875 0 20 8.953125 20 20zm0 0" fill="#8ae6df"/><path d="m82.515625 405.363281c0 11.042969-8.957031 20-20 20-11.046875 0-20-8.957031-20-20 0-11.046875 8.953125-20 20-20 11.042969 0 20 8.953125 20 20zm0 0" fill="#ff3855"/><path d="m366.511719 434.363281c0 11.042969-8.953125 20-20 20-11.042969 0-20-8.957031-20-20 0-11.046875 8.957031-20 20-20 11.046875 0 20 8.953125 20 20zm0 0" fill="#e9ca92"/></g><path d="m420.496094 303.949219c-.214844-29.800781-14.675782-44.460938-27.445313-57.40625-6.222656-6.3125-10.039062-10.441407-10.039062-15.574219 0-5.136719 3.816406-9.265625 10.039062-15.574219 12.867188-13.042969 27.449219-27.828125 27.449219-58.082031s-14.582031-45.039062-27.449219-58.082031c-6.222656-6.3125-10.039062-10.441407-10.039062-15.574219 0-5.136719 3.816406-9.261719 10.042969-15.578125 12.863281-13.042969 27.445312-27.828125 27.445312-58.078125 0-5.523438-4.480469-10-10-10h-38.234375c-5.523437 0-10 4.476562-10 10 0 6.207031-4.039063 10.617188-10.632813 17.304688-12.585937 12.761718-26.855468 27.226562-26.855468 56.351562s14.269531 43.589844 26.859375 56.351562c6.589843 6.6875 10.628906 11.097657 10.628906 17.304688s-4.039063 10.621094-10.632813 17.304688c-12.589843 12.761718-26.855468 27.226562-26.855468 56.351562s14.265625 43.589844 26.855468 56.351562c6.589844 6.683594 10.632813 11.097657 10.632813 17.304688 0 5.523438 4.476563 10 10 10h38.230469.019531c5.523437 0 10-4.476562 10-10 0-.230469-.003906-.453125-.019531-.675781zm-39.742188-9.324219c-2.890625-9.191406-9.390625-15.78125-14.882812-21.351562-11.785156-11.945313-21.09375-21.382813-21.09375-42.308594 0-20.917969 9.308594-30.355469 21.09375-42.304688 7.304687-7.40625 16.394531-16.625 16.394531-31.351562 0-14.722656-9.085937-23.9375-16.394531-31.347656-11.785156-11.949219-21.09375-21.386719-21.09375-42.308594s9.308594-30.359375 21.09375-42.308594c5.492187-5.566406 11.992187-12.160156 14.882812-21.347656h18.960938c-2.574219 15.453125-11.1875 24.183594-20.902344 34.035156-7.042969 7.140625-15.800781 16.023438-15.800781 29.621094s8.761719 22.480468 15.800781 29.617187c11.636719 11.800781 21.683594 21.988281 21.683594 44.039063 0 22.050781-10.046875 32.238281-21.683594 44.035156-7.042969 7.140625-15.800781 16.023438-15.800781 29.621094s8.761719 22.480468 15.800781 29.617187c9.714844 9.851563 18.328125 18.582031 20.902344 34.039063h-18.960938zm0 0"/><path d="m258.359375 281.03125c0-29.125-14.269531-43.589844-26.855469-56.351562-6.59375-6.683594-10.632812-11.097657-10.632812-17.304688 0-5.519531-4.476563-10-10-10h-38.230469c-5.523437 0-10 4.480469-10 10 0 30.257812 14.582031 45.039062 27.445313 58.082031 6.226562 6.3125 10.039062 10.4375 10.039062 15.574219s-3.8125 9.261719-10.039062 15.574219c-12.863282 13.042969-27.445313 27.824219-27.445313 58.082031s14.582031 45.039062 27.445313 58.078125c6.226562 6.316406 10.042968 10.441406 10.042968 15.578125 0 5.132812-3.816406 9.261719-10.039062 15.574219-12.867188 13.042969-27.449219 27.824219-27.449219 58.078125 0 5.523437 4.476563 10 10 10h38.234375c5.523438 0 10-4.476563 10-10 0-6.203125 4.039062-10.617188 10.632812-17.304688 12.585938-12.757812 26.851563-27.222656 26.851563-56.351562 0-29.125-14.265625-43.589844-26.851563-56.347656-6.59375-6.6875-10.632812-11.101563-10.632812-17.308594 0-6.207032 4.039062-10.617188 10.632812-17.304688 12.582032-12.757812 26.851563-27.21875 26.851563-56.347656zm-41.09375 105.007812c11.785156 11.945313 21.09375 21.382813 21.09375 42.304688 0 20.925781-9.308594 30.359375-21.097656 42.3125-5.492188 5.566406-11.988281 12.160156-14.878907 21.34375h-18.960937c2.574219-15.453125 11.1875-24.183594 20.90625-34.039062 7.039063-7.136719 15.796875-16.019532 15.796875-29.617188s-8.761719-22.480469-15.800781-29.617188c-11.636719-11.796874-21.6875-21.984374-21.6875-44.035156 0-22.054687 10.050781-32.242187 21.6875-44.039062 7.039062-7.136719 15.800781-16.019532 15.800781-29.617188 0-13.601562-8.761719-22.484375-15.800781-29.621094-9.71875-9.851562-18.328125-18.582031-20.90625-34.035156h18.964843c2.886719 9.1875 9.390626 15.78125 14.878907 21.347656 11.785156 11.949219 21.09375 21.386719 21.09375 42.308594s-9.308594 30.359375-21.09375 42.308594c-7.300781 7.40625-16.390625 16.621094-16.390625 31.347656 0 14.722656 9.089844 23.941406 16.394531 31.347656zm0 0"/><path d="m68.769531 246.542969c-6.226562-6.3125-10.039062-10.441407-10.039062-15.574219 0-5.136719 3.8125-9.265625 10.039062-15.574219 12.867188-13.042969 27.449219-27.824219 27.449219-58.082031 0-30.253906-14.582031-45.039062-27.449219-58.082031-6.226562-6.3125-10.039062-10.441407-10.039062-15.574219s3.8125-9.261719 10.039062-15.574219c12.867188-13.046875 27.449219-27.828125 27.449219-58.082031 0-5.523438-4.476562-10-10-10h-38.234375c-5.519531 0-10 4.476562-10 10 0 6.207031-4.039063 10.617188-10.632813 17.304688-12.585937 12.761718-26.851562 27.222656-26.851562 56.351562 0 29.125 14.265625 43.589844 26.855469 56.355469 6.589843 6.683593 10.628906 11.09375 10.628906 17.300781s-4.039063 10.617188-10.632813 17.304688c-12.585937 12.761718-26.851562 27.222656-26.851562 56.351562 0 29.125 14.265625 43.589844 26.851562 56.351562 6.59375 6.683594 10.632813 11.097657 10.632813 17.304688 0 5.519531 4.480469 10 10 10h38.234375.019531c5.523438 0 10-4.480469 10-10 0-.226562-.007812-.453125-.023437-.675781-.214844-29.804688-14.675782-44.460938-27.445313-57.40625zm-12.296875 48.082031c-2.886718-9.191406-9.390625-15.78125-14.882812-21.351562-11.785156-11.945313-21.09375-21.382813-21.09375-42.308594 0-20.921875 9.308594-30.355469 21.097656-42.308594 7.300781-7.40625 16.390625-16.621094 16.390625-31.347656 0-14.722656-9.085937-23.9375-16.394531-31.347656-11.785156-11.945313-21.09375-21.382813-21.09375-42.308594 0-20.921875 9.308594-30.359375 21.09375-42.308594 5.492187-5.566406 11.992187-12.15625 14.882812-21.347656h18.960938c-2.574219 15.457031-11.1875 24.1875-20.90625 34.039062-7.039063 7.136719-15.800782 16.019532-15.800782 29.617188s8.761719 22.480468 15.800782 29.621094c11.636718 11.796874 21.6875 21.984374 21.6875 44.035156 0 22.054687-10.050782 32.238281-21.6875 44.039062-7.039063 7.136719-15.800782 16.019532-15.800782 29.617188s8.761719 22.480468 15.800782 29.617187c9.71875 9.855469 18.332031 18.582031 20.90625 34.039063h-18.960938zm0 0"/><path d="m267.511719 100.363281c-16.539063 0-30 13.457031-30 30s13.460937 30 30 30c16.542969 0 30-13.457031 30-30s-13.457031-30-30-30zm0 40c-5.511719 0-10-4.488281-10-10 0-5.515625 4.488281-10 10-10 5.515625 0 10 4.484375 10 10 0 5.511719-4.484375 10-10 10zm0 0"/><path d="m62.515625 375.363281c-16.542969 0-30 13.457031-30 30 0 16.539063 13.457031 30 30 30 16.539063 0 30-13.460937 30-30 0-16.542969-13.460937-30-30-30zm0 40c-5.515625 0-10-4.488281-10-10 0-5.515625 4.484375-10 10-10 5.511719 0 10 4.484375 10 10 0 5.511719-4.488281 10-10 10zm0 0"/><path d="m346.511719 404.363281c-16.539063 0-30 13.457031-30 30 0 16.539063 13.460937 30 30 30 16.542969 0 30-13.460937 30-30 0-16.542969-13.457031-30-30-30zm0 40c-5.511719 0-10-4.488281-10-10 0-5.515625 4.488281-10 10-10 5.515625 0 10 4.484375 10 10 0 5.511719-4.484375 10-10 10zm0 0"/><path d="m166.515625 86.363281c16.539063 0 29.996094-13.457031 29.996094-30s-13.457031-30-29.996094-30c-16.542969 0-30 13.457031-30 30s13.457031 30 30 30zm0-40c5.511719 0 9.996094 4.484375 9.996094 10 0 5.511719-4.484375 10-9.996094 10-5.515625 0-10-4.488281-10-10s4.484375-10 10-10zm0 0"/><path d="m178.511719 129.859375c-5.507813 0-9.996094 4.492187-9.996094 10.003906 0 5.507813 4.488281 10 9.996094 10 5.511719 0 10-4.492187 10-10 0-5.507812-4.488281-10.003906-10-10.003906zm0 0"/><path d="m133.515625 282.863281c5.507813 0 10-4.492187 10-10 0-5.511719-4.492187-10-10-10-5.511719 0-10 4.488281-10 10 0 5.507813 4.488281 10 10 10zm0 0"/><path d="m123.515625 452.859375c-5.511719 0-10 4.492187-10 10s4.488281 10 10 10c5.507813 0 10-4.492187 10-10s-4.492187-10-10-10zm0 0"/><path d="m307.511719 335.863281c-5.507813 0-10 4.488281-10 9.996094 0 5.511719 4.492187 10 10 10 5.507812 0 10-4.488281 10-10 0-5.507813-4.492188-9.996094-10-9.996094zm0 0"/><path d="m394.511719 361.859375c-5.507813 0-10 4.492187-10 10 0 5.511719 4.492187 10 10 10 5.507812 0 10-4.488281 10-10 0-5.507813-4.492188-10-10-10zm0 0"/><path d="m278.511719 193.863281c-5.507813 0-10 4.488281-10 10 0 5.507813 4.492187 10 10 10 5.507812 0 10-4.492187 10-10 0-5.507812-4.492188-10-10-10zm0 0"/><path d="m273.511719 30c5.507812 0 10-4.492188 10-10s-4.492188-10-10-10c-5.507813 0-10 4.492188-10 10s4.492187 10 10 10zm0 0"/><path d="m269.941406 83.894531c.941406.273438 1.886719.40625 2.816406.40625 4.328126 0 8.316407-2.828125 9.59375-7.1875.476563-1.628906 1.054688-3.320312 1.664063-5.117187 2.378906-7.003906 5.347656-15.726563 3.753906-25.816406-.863281-5.457032-5.984375-9.183594-11.4375-8.320313-5.457031.859375-9.179687 5.980469-8.320312 11.4375.824219 5.214844-.917969 10.335937-2.933594 16.265625-.648437 1.914062-1.324219 3.890625-1.917969 5.925781-1.554687 5.296875 1.480469 10.851563 6.78125 12.40625zm0 0"/><path d="m133.933594 291.8125c-5.457032.859375-9.183594 5.980469-8.320313 11.4375.824219 5.214844-.917969 10.335938-2.933593 16.265625-.652344 1.914063-1.324219 3.894531-1.921876 5.925781-1.550781 5.300782 1.484376 10.855469 6.785157 12.410156.9375.273438 1.886719.40625 2.816406.40625 4.328125 0 8.3125-2.828124 9.59375-7.191406.476563-1.625 1.050781-3.320312 1.660156-5.113281 2.382813-7.007813 5.347657-15.730469 3.753907-25.820313-.859376-5.457031-5.984376-9.179687-11.433594-8.320312zm0 0"/></svg>